# xmcd
#
# Track frame offsets: 
#        182
#        22567
#        40670
#        60072
#        76330
#        101295
#        125872
#        143462
#        186577
#        217662
#
# Disc length: 3357 seconds
#
# Revision: 2
# Processed by: cddbd v1.5.2PL0 Copyright (c) Steve Scherf et al.
# Submitted via: ExactAudioCopy v0.99pb1
#
DISCID=6f0d1b0a
DTITLE=John Mayall And The Bluesbreakers - The 1982 Reunion Concert
DYEAR=1994
DGENRE=
TTITLE0=Hard Times Again
TTITLE1=You Never Can Be Trusted
TTITLE2=Howlin Moon
TTITLE3=Ridin' On The Santa Fe
TTITLE4=I Should Know Better
TTITLE5=My Time After Awhile
TTITLE6=She Can Do It
TTITLE7=Lookin' For Willie
TTITLE8=Room To Move
TTITLE9=Have You Heard
EXTD=
EXTT0=
EXTT1=
EXTT2=
EXTT3=
EXTT4=
EXTT5=
EXTT6=
EXTT7=
EXTT8=
EXTT9=
PLAYORDER=
